<svg width="24" height="24" viewBox="0 0 24 24" fill="none" xmlns="http://www.w3.org/2000/svg">
<path d="M19.0167 2.89502H4.54462C4.1608 2.89502 3.7927 3.04749 3.52129 3.3189C3.24989 3.5903 3.09741 3.95841 3.09741 4.34223V18.8143C3.09741 19.1982 3.24989 19.5663 3.52129 19.8377C3.7927 20.1091 4.1608 20.2616 4.54462 20.2616H19.0167C19.4006 20.2616 19.7687 20.1091 20.0401 19.8377C20.3115 19.5663 20.464 19.1982 20.464 18.8143V4.34223C20.464 3.95841 20.3115 3.5903 20.0401 3.3189C19.7687 3.04749 19.4006 2.89502 19.0167 2.89502ZM4.54462 18.8143V4.34223H19.0167V18.8143H4.54462Z" fill="black"/>
<path d="M10.3336 15.5578L6.71558 11.9687L7.86611 10.8544L10.3336 13.2785L15.6955 7.95996L16.8461 9.10326L10.3336 15.5578Z" fill="black"/>
</svg>
